<?xml version="1.0" standalone="no"?><!DOCTYPE svg PUBLIC "-//W3C//DTD SVG 1.1//EN" "http://www.w3.org/Graphics/SVG/1.1/DTD/svg11.dtd"><svg class="icon" width="400px" height="400.00px" viewBox="0 0 1024 1024" version="1.1" xmlns="http://www.w3.org/2000/svg"><path d="M180.704 290.6992C222.764 211.7992 257.632 134.3112 400.864 122.4072c68.132-3.588 158.52 14.38 243.224 73.572 82.492 58.76 159.288 158.744 149.376 309.224-4.28 41.452 11.936 44.86 37.748 3.28 25.848-41.564 36.816-112.772 23.996-153.804-44.856-164.272-177.14-254.484-299.068-297.868-124.8-43.484-239.24-40.14-314.244-20.332-160.328 49.904-141.36 135.68-143.132 224.312-0.076 11.572 16.092 24.704 35.52 32.76 19.512 7.908 39.62 8.304 46.412-2.852z" fill="#F59FB3" /><path d="M143.676 410.0152C246.084 345.3032 292.28 246.1552 414.264 224.6032c59.384-8.872 137.996 5.9 209.908 66.736 68.304 60.388 129.916 166.828 72.392 330.812-16.256 39.824-1.84 45.7 35.008 8.94 36.868-36.704 67.856-104.248 67.428-145.648 2.18-188.644-118.036-288.24-223.968-336.092C464.336 101.7392 367.92 105.8712 307.296 129.6312 183.424 184.3112 196.604 297.4392 106.916 381.2192c-9.416 9.22-10.036 19.608-1.336 26.868 8.708 7.152 25.264 9.76 38.096 1.928z" fill="#FFFF75" /><path d="M200.936 432.1392C298.46 382.5912 376.224 318.5112 480.392 334.5872c49.948 8.98 104.252 40.596 136.2 106.288 29.88 64.952 37.408 163.988-54.232 290.816-29.04 36.828-17.516 45.16 30.044 14.768 47.52-30.344 99-91.732 111.712-132.16 51.408-153.82-3.2-258.176-67.568-319.92-67.24-62.264-144.24-81.912-203.8-78.668-124.812 11.336-171.64 98.776-258.08 168.46-11.348 9.412-14.476 24.116-8.828 36.304 5.728 12.06 20.084 18.86 35.096 11.664z" fill="#AFEB75" /><path d="M49.788 515.0632c130.168-2.152 253.6-75.144 356.464-77.328 52.22 0.464 104.272 22.876 128.492 84.932 20.712 60.92 13.576 161.48-133.396 291.776-40.828 32.492-32.98 42.864 23.28 19.816 56.18-23 125.812-75.988 150.788-113.84 108.696-168.096 65.584-277.068 11.752-335.912-58.78-59.592-128.296-69.056-187.536-55.748-110.272 31.572-217.308 137.752-348.688 148.88-14.092 1.4-22.856 7.688-24.428 17.6-1.512 9.784 6.328 20.16 23.272 19.824z" fill="#75D5EB" /><path d="M256.544 728.8312c5.812-17.804 24-39.636 40.472-48.584l0.072-0.04c16.496-8.908 16.496-23.504 0-32.408l-0.072-0.052c-16.468-8.92-35.592-29.016-42.512-44.648-6.912-15.652-18.232-15.652-25.18 0-6.92 15.652-26.06 35.724-42.552 44.648l-0.096 0.052c-16.472 8.896-16.472 23.48 0 32.408l0.096 0.04c16.492 8.892 34.648 30.78 40.46 48.584l4.144 12.564c5.812 17.792 15.216 17.792 21.068 0l4.1-12.56z" fill="#FFBF00" /><path d="M581.632 199.8552c3.688-11.336 15.272-25.244 25.748-30.904l0.056-0.028c10.46-5.664 10.46-14.96 0-20.632l-0.056-0.036c-10.472-5.64-22.632-18.456-27.04-28.392-4.4-9.944-11.624-9.944-16.024 0-4.38 9.932-16.576 22.744-27.052 28.392l-0.036 0.04c-10.472 5.652-10.472 14.948 0 20.628l0.04 0.028c10.476 5.66 22.06 19.6 25.748 30.904l2.612 8c3.68 11.336 9.72 11.336 13.408 0l2.6-8z" fill="#FFFFFF" /><path d="M163.344 272.7632c1.52-4.656 6.28-10.372 10.592-12.696l0.02-0.008c4.3-2.336 4.3-6.16 0-8.488l-0.02-0.008c-4.3-2.332-9.304-7.592-11.128-11.68-1.812-4.088-4.776-4.088-6.576 0-1.816 4.092-6.824 9.348-11.12 11.68l-0.024 0.008c-4.3 2.332-4.3 6.152 0 8.488l0.024 0.008c4.292 2.332 9.06 8.048 10.592 12.696l1.068 3.288c1.52 4.668 3.992 4.668 5.504 0l1.068-3.288z" fill="#FFB0B8" /><path d="M884.252 926.4952c8.484-25.956 35.008-57.824 59.028-70.868l0.132-0.04c24.06-13.032 24.06-34.34 0-47.32l-0.132-0.06c-24.02-13.024-51.92-42.332-62.012-65.14-10.088-22.836-26.608-22.836-36.728 0-10.108 22.84-38.008 52.132-62.096 65.14l-0.12 0.06c-24.048 13.008-24.048 34.292 0 47.32l0.12 0.04c24.072 12.988 50.56 44.9 59.052 70.868l6.036 18.36c8.496 25.936 22.208 25.936 30.732 0l5.988-18.36z" fill="#F59FB3" /><path d="M905.124 201.6472c-34.188-32.2-72.408-30.512-92.312 15.4-29.976 68.152-63.528 133.012-100.148 194.32a1912.856 1912.856 0 0 1 107.8 118.632c40.32-61.568 77.68-126.824 111.592-195.528 22.972-46.34 7.128-100.832-26.932-132.824z" fill="#CACAE3" /><path d="M820.464 529.9992c-121.76 186.02-270.504 338.08-432.46 451.92-36.32 25.312-72.208 9.828-92.632-22.256-20.464-32.344-19.148-69.776 14.892-95.416 154.224-115.988 293.888-269.96 404.924-457.132" fill="#546470" /></svg>